<svg xmlns="http://www.w3.org/2000/svg" width="14.857" height="13" viewBox="0 0 14.857 13">
  <path id="sort-amount-down" d="M8.821,13.393H6.964a.464.464,0,0,0-.464.464v.929a.464.464,0,0,0,.464.464H8.821a.464.464,0,0,0,.464-.464v-.929A.464.464,0,0,0,8.821,13.393ZM5.107,11.536H3.714V2.714A.464.464,0,0,0,3.25,2.25H2.321a.464.464,0,0,0-.464.464v8.821H.464a.464.464,0,0,0-.328.792l2.321,2.786a.464.464,0,0,0,.656,0l2.321-2.786A.465.465,0,0,0,5.107,11.536Zm7.429-5.571H6.964a.464.464,0,0,0-.464.464v.929a.464.464,0,0,0,.464.464h5.571A.464.464,0,0,0,13,7.357V6.429A.464.464,0,0,0,12.536,5.964ZM10.679,9.679H6.964a.464.464,0,0,0-.464.464v.929a.464.464,0,0,0,.464.464h3.714a.464.464,0,0,0,.464-.464v-.929A.464.464,0,0,0,10.679,9.679ZM14.393,2.25H6.964a.464.464,0,0,0-.464.464v.929a.464.464,0,0,0,.464.464h7.429a.464.464,0,0,0,.464-.464V2.714A.464.464,0,0,0,14.393,2.25Z" transform="translate(0 -2.25)" fill="#c1c1c1"/>
</svg>
